<?xml version="1.0" standalone="no"?>
<!DOCTYPE svg PUBLIC "-//W3C//DTD SVG 20010904//EN"
 "http://www.w3.org/TR/2001/REC-SVG-20010904/DTD/svg10.dtd">
<svg version="1.0" xmlns="http://www.w3.org/2000/svg"
 width="512.000000pt" height="512.000000pt" viewBox="0 0 512.000000 512.000000"
 preserveAspectRatio="xMidYMid meet">
<metadata>
Created by potrace 1.14, written by Peter Selinger 2001-2017
</metadata>
<g transform="translate(0.000000,512.000000) scale(0.100000,-0.100000)"
fill="#000000" stroke="none">
<path d="M0 2560 l0 -2560 2560 0 2560 0 0 2560 0 2560 -2560 0 -2560 0 0
-2560z m4496 1631 c87 -39 144 -148 130 -245 -9 -55 -54 -127 -97 -154 -19
-11 -90 -39 -159 -61 -235 -76 -347 -146 -447 -278 -59 -78 -123 -207 -149
-303 -27 -94 -26 -324 0 -400 55 -159 140 -263 268 -324 109 -52 204 -68 403
-70 155 -1 174 -3 217 -24 108 -53 172 -172 149 -277 -23 -102 -96 -176 -190
-192 -88 -15 -399 -9 -491 10 -444 92 -715 341 -807 740 -56 244 -21 555 86
765 12 24 20 46 17 49 -6 7 -294 -107 -581 -230 -115 -49 -229 -92 -252 -95
-92 -10 -196 49 -234 132 -43 95 -8 230 72 283 22 14 144 64 272 110 1334 483
1621 582 1697 582 33 0 71 -7 96 -18z m137 -495 c44 -18 217 -180 245 -229 27
-49 28 -89 3 -143 -23 -51 -70 -85 -126 -91 -71 -9 -106 10 -218 120 -81 79
-108 111 -117 144 -24 79 12 161 83 193 50 23 86 25 130 6z m-2682 -141 c60
-22 93 -56 147 -155 146 -270 320 -475 535 -632 54 -40 118 -87 140 -103 94
-69 113 -140 72 -265 -31 -93 -62 -135 -120 -161 -83 -38 -148 -21 -252 66
-37 30 -68 53 -70 51 -2 -2 4 -36 12 -76 82 -390 9 -745 -198 -967 -163 -174
-392 -287 -667 -328 -122 -19 -206 -19 -315 0 -175 31 -326 111 -436 233 -102
114 -167 253 -210 452 -20 89 -23 135 -24 310 0 242 15 338 95 583 27 83 48
153 46 155 -2 1 -61 -21 -132 -49 -161 -65 -215 -70 -290 -24 -36 23 -55 44
-76 85 -54 108 -46 191 26 265 34 35 58 48 141 75 138 45 434 165 591 239 107
50 140 61 182 61 97 0 166 -50 212 -152 33 -73 21 -150 -35 -216 -210 -245
-347 -695 -315 -1034 20 -205 65 -325 156 -414 72 -70 127 -89 259 -88 112 1
212 28 315 87 111 62 206 186 244 317 88 298 -11 765 -270 1282 -58 115 -67
141 -67 188 -1 73 29 129 90 171 85 59 139 70 214 44z m2399 -150 c14 -7 71
-60 126 -117 75 -76 105 -113 113 -142 28 -103 -52 -206 -159 -206 -64 1 -97
23 -200 132 -118 126 -138 175 -106 252 38 90 139 127 226 81z"/>
</g>
</svg>
